# xmcd
#
# Track frame offsets:
#	150
#	21733
#	44205
#	63055
#	81983
#	103237
#	132089
#	149656
#	172751
#	192798
#	214777
#
# Disc length: 3248 seconds
#
# Revision: 2
# Processed by: cddbd v1.5.2PL0 Copyright (c) Steve Scherf et al.
# Submitted via: EZCDDA 4.3.2
#
DISCID=a50cae0b
DTITLE=Battlelore - The Last Alliance
DYEAR=1900
DGENRE=
TTITLE0=Third Immortal
TTITLE1=Exile The Daystar
TTITLE2=The Great Gathering
TTITLE3=Guardians
TTITLE4=The Voice Of The Fallen
TTITLE5=Daughter Of The Sun
TTITLE6=Green Dragon
TTITLE7=Awakening
TTITLE8=Epic Dreams
TTITLE9=Moontower
TTITLE10=The Star Of High Hope
EXTD=
EXTT0=
EXTT1=
EXTT2=
EXTT3=
EXTT4=
EXTT5=
EXTT6=
EXTT7=
EXTT8=
EXTT9=
EXTT10=
PLAYORDER=
